# xmcd
#
# Track frame offsets:
#	150
#	18868
#	32450
#	46975
#	61420
#	84028
#	97649
#	109150
#	119418
#	132497
#	148455
#	167084
#
# Disc length: 2471 seconds
#
# Revision: 0
# Processed by: cddbd v1.5.2PL0 Copyright (c) Steve Scherf et al.
# Submitted via: VUPlayer 2.49
#
DISCID=9609a50c
DTITLE=Craig Brenner - Man At The Piano
DYEAR=1997
DGENRE=Blues Piano
TTITLE0=Jumpin'
TTITLE1=One Mint Julep
TTITLE2=On The Sunny Side Of The Street
TTITLE3=Peetie Wheatstraw Stomp
TTITLE4=You're A Hog For Me
TTITLE5=Opus 3 Number 6:Perusin' The Blues C
TTITLE6=When Sunny Gets Blue
TTITLE7=Mean To Me
TTITLE8=All The Things You Are
TTITLE9=Strollin' And Rollin'
TTITLE10=Hey Little Girl
TTITLE11=Mardi Gras In New Orleans
EXTD=
EXTT0=
EXTT1=
EXTT2=
EXTT3=
EXTT4=
EXTT5=
EXTT6=
EXTT7=
EXTT8=
EXTT9=
EXTT10=
EXTT11=
PLAYORDER=
